<svg width="171" height="77" viewBox="0 0 171 77" fill="none" xmlns="http://www.w3.org/2000/svg">
<path d="M56.527 12.935C56.527 11.6123 56.775 10.5273 57.271 9.68C57.7877 8.812 58.4283 8.13 59.193 7.634C59.9783 7.11733 60.836 6.766 61.766 6.58C62.7167 6.37333 63.626 6.27 64.494 6.27C64.742 6.27 65.052 6.28033 65.424 6.301C65.8167 6.32166 66.2197 6.35266 66.633 6.394C67.067 6.43533 67.501 6.49733 67.935 6.58C68.3897 6.642 68.8133 6.735 69.206 6.859C69.2473 7.39633 69.2783 7.90267 69.299 8.378C69.3197 8.83267 69.33 9.35967 69.33 9.959C69.33 10.5583 69.3197 11.137 69.299 11.695C69.2783 12.2323 69.2473 12.749 69.206 13.245C69.0407 13.2243 68.8237 13.1933 68.555 13.152C68.307 13.1107 68.0383 13.0797 67.749 13.059C67.4803 13.0383 67.2013 13.0177 66.912 12.997C66.6433 12.9763 66.385 12.966 66.137 12.966C65.145 12.966 64.4217 13.121 63.967 13.431C63.5123 13.741 63.285 14.1647 63.285 14.702C63.285 15.012 63.3573 15.3117 63.502 15.601C63.6467 15.8697 63.8327 16.128 64.06 16.376C64.308 16.624 64.5767 16.8617 64.866 17.089C65.176 17.3163 65.486 17.5333 65.796 17.74C66.292 18.0913 66.788 18.484 67.284 18.918C67.8007 19.3313 68.2657 19.8377 68.679 20.437C69.0923 21.0157 69.4333 21.6977 69.702 22.483C69.9707 23.2477 70.105 24.1363 70.105 25.149C70.105 26.4717 69.8777 27.5877 69.423 28.497C68.9683 29.4063 68.3793 30.1503 67.656 30.729C66.9533 31.287 66.1577 31.7003 65.269 31.969C64.401 32.217 63.533 32.341 62.665 32.341C62.2723 32.341 61.7867 32.31 61.208 32.248C60.65 32.2067 60.0817 32.1343 59.503 32.031C58.9243 31.9483 58.3767 31.845 57.86 31.721C57.3433 31.5763 56.93 31.411 56.62 31.225C56.5373 30.853 56.465 30.4707 56.403 30.078C56.3617 29.6853 56.341 29.2513 56.341 28.776C56.341 28.4453 56.3513 28.0423 56.372 27.567C56.4133 27.0917 56.4547 26.606 56.496 26.11C56.5373 25.614 56.5787 25.1387 56.62 24.684C56.682 24.2293 56.7337 23.847 56.775 23.537C57.0023 23.661 57.333 23.8057 57.767 23.971C58.201 24.1157 58.666 24.2603 59.162 24.405C59.6787 24.5497 60.1953 24.6737 60.712 24.777C61.2287 24.8803 61.6833 24.932 62.076 24.932C62.7373 24.932 63.2333 24.7977 63.564 24.529C63.8947 24.2397 64.06 23.8573 64.06 23.382C64.06 22.8653 63.874 22.4107 63.502 22.018C63.13 21.6047 62.665 21.2017 62.107 20.809C61.549 20.4163 60.9393 20.003 60.278 19.569C59.6373 19.1143 59.038 18.5873 58.48 17.988C57.922 17.3887 57.457 16.686 57.085 15.88C56.713 15.0533 56.527 14.0717 56.527 12.935ZM86.0378 32H81.7908V30.481C81.0468 31.0803 80.2615 31.5453 79.4348 31.876C78.6081 32.186 77.8021 32.341 77.0168 32.341C76.0868 32.341 75.2291 32.1137 74.4438 31.659C73.6585 31.2043 72.9765 30.574 72.3978 29.768C71.8398 28.9413 71.3955 27.9597 71.0648 26.823C70.7341 25.6863 70.5688 24.4463 70.5688 23.103C70.5688 21.6977 70.7445 20.3853 71.0958 19.166C71.4471 17.9467 71.9225 16.8927 72.5218 16.004C73.1418 15.0947 73.8651 14.392 74.6918 13.896C75.5391 13.3793 76.4485 13.121 77.4198 13.121C78.2671 13.121 79.0731 13.307 79.8378 13.679C80.6025 14.0303 81.2535 14.4747 81.7908 15.012V13.462H86.1928L86.0378 32ZM76.4898 20.809C76.4898 21.6563 76.7171 22.3383 77.1718 22.855C77.6471 23.3717 78.2465 23.63 78.9698 23.63C79.7551 23.63 80.4165 23.351 80.9538 22.793C81.5118 22.235 81.7908 21.522 81.7908 20.654C81.7908 20.2613 81.7185 19.8893 81.5738 19.538C81.4498 19.1867 81.2638 18.887 81.0158 18.639C80.7678 18.3703 80.4785 18.1637 80.1478 18.019C79.8171 17.8743 79.4658 17.802 79.0938 17.802C78.3498 17.802 77.7298 18.081 77.2338 18.639C76.7378 19.197 76.4898 19.9203 76.4898 20.809ZM102.688 32H98.4412V30.481C97.6972 31.0803 96.9118 31.5453 96.0852 31.876C95.2585 32.186 94.4525 32.341 93.6672 32.341C92.7372 32.341 91.8795 32.1137 91.0942 31.659C90.3088 31.2043 89.6268 30.574 89.0482 29.768C88.4902 28.9413 88.0458 27.9597 87.7152 26.823C87.3845 25.6863 87.2192 24.4463 87.2192 23.103C87.2192 21.6977 87.3948 20.3853 87.7462 19.166C88.0975 17.9467 88.5728 16.8927 89.1722 16.004C89.7922 15.0947 90.5155 14.392 91.3422 13.896C92.1895 13.3793 93.0988 13.121 94.0702 13.121C94.9175 13.121 95.7235 13.307 96.4882 13.679C97.2528 14.0303 97.9038 14.4747 98.4412 15.012V13.462H102.843L102.688 32ZM93.1402 20.809C93.1402 21.6563 93.3675 22.3383 93.8222 22.855C94.2975 23.3717 94.8968 23.63 95.6202 23.63C96.4055 23.63 97.0668 23.351 97.6042 22.793C98.1622 22.235 98.4412 21.522 98.4412 20.654C98.4412 20.2613 98.3688 19.8893 98.2242 19.538C98.1002 19.1867 97.9142 18.887 97.6662 18.639C97.4182 18.3703 97.1288 18.1637 96.7982 18.019C96.4675 17.8743 96.1162 17.802 95.7442 17.802C95.0002 17.802 94.3802 18.081 93.8842 18.639C93.3882 19.197 93.1402 19.9203 93.1402 20.809ZM105.885 9.866H110.132V13.462H112.519V21.708H110.07V26.048C110.07 26.8953 110.142 27.4637 110.287 27.753C110.431 28.0217 110.762 28.156 111.279 28.156C111.423 28.156 111.62 28.1457 111.868 28.125C112.116 28.1043 112.302 28.0733 112.426 28.032C112.467 28.1767 112.488 28.4763 112.488 28.931C112.488 29.365 112.488 29.8093 112.488 30.264C112.488 30.6567 112.488 31.0183 112.488 31.349C112.488 31.659 112.477 31.876 112.457 32C112.209 32.0413 111.93 32.0723 111.62 32.093C111.33 32.1343 111.041 32.1653 110.752 32.186C110.483 32.2067 110.225 32.217 109.977 32.217C109.749 32.2377 109.563 32.248 109.419 32.248C108.675 32.248 108.065 32.1033 107.59 31.814C107.114 31.5247 106.742 31.1423 106.474 30.667C106.205 30.171 106.019 29.6233 105.916 29.024C105.812 28.404 105.761 27.7737 105.761 27.133C105.761 26.885 105.761 26.5233 105.761 26.048C105.781 25.552 105.792 25.0353 105.792 24.498C105.812 23.9607 105.833 23.444 105.854 22.948C105.874 22.4313 105.885 22.018 105.885 21.708H104.025V13.462H105.885V9.866ZM118.214 13.462V15.136C118.71 14.516 119.31 14.0303 120.012 13.679C120.736 13.307 121.469 13.121 122.213 13.121C123.123 13.121 123.929 13.369 124.631 13.865C125.334 14.361 125.799 14.95 126.026 15.632C126.13 15.942 126.212 16.376 126.274 16.934C126.357 17.4713 126.398 18.081 126.398 18.763V32H121.841V23.01C121.841 22.08 121.666 21.46 121.314 21.15C120.984 20.8193 120.591 20.654 120.136 20.654C119.537 20.654 119.062 20.8503 118.71 21.243C118.38 21.615 118.214 22.1007 118.214 22.7V32H113.719C113.719 31.318 113.719 30.605 113.719 29.861C113.74 29.0963 113.75 28.342 113.75 27.598C113.75 26.8333 113.75 26.079 113.75 25.335C113.75 24.591 113.75 23.8883 113.75 23.227C113.75 22.8343 113.75 22.2453 113.75 21.46C113.75 20.6747 113.74 19.817 113.719 18.887C113.719 17.957 113.719 17.0063 113.719 16.035C113.719 15.0637 113.719 14.206 113.719 13.462H118.214ZM140.977 13.462L134.591 37.611H129.91L131.367 31.473L126.593 13.462H131.491L133.196 22.483C133.3 22.9583 133.382 23.32 133.444 23.568C133.527 23.816 133.651 23.94 133.816 23.94C134.085 23.94 134.312 23.4543 134.498 22.483L136.265 13.462H140.977ZM155.788 32H151.541V30.481C150.797 31.0803 150.011 31.5453 149.185 31.876C148.358 32.186 147.552 32.341 146.767 32.341C145.837 32.341 144.979 32.1137 144.194 31.659C143.408 31.2043 142.726 30.574 142.148 29.768C141.59 28.9413 141.145 27.9597 140.815 26.823C140.484 25.6863 140.319 24.4463 140.319 23.103C140.319 21.6977 140.494 20.3853 140.846 19.166C141.197 17.9467 141.672 16.8927 142.272 16.004C142.892 15.0947 143.615 14.392 144.442 13.896C145.289 13.3793 146.198 13.121 147.17 13.121C148.017 13.121 148.823 13.307 149.588 13.679C150.352 14.0303 151.003 14.4747 151.541 15.012V13.462H155.943L155.788 32ZM146.24 20.809C146.24 21.6563 146.467 22.3383 146.922 22.855C147.397 23.3717 147.996 23.63 148.72 23.63C149.505 23.63 150.166 23.351 150.704 22.793C151.262 22.235 151.541 21.522 151.541 20.654C151.541 20.2613 151.468 19.8893 151.324 19.538C151.2 19.1867 151.014 18.887 150.766 18.639C150.518 18.3703 150.228 18.1637 149.898 18.019C149.567 17.8743 149.216 17.802 148.844 17.802C148.1 17.802 147.48 18.081 146.984 18.639C146.488 19.197 146.24 19.9203 146.24 20.809ZM61.735 51.857C62.0243 51.8983 62.262 51.919 62.448 51.919C62.634 51.919 62.8303 51.919 63.037 51.919C64.153 51.919 65.0417 51.7123 65.703 51.299C66.3643 50.8857 66.695 50.338 66.695 49.656C66.695 49.036 66.4057 48.5607 65.827 48.23C65.269 47.8993 64.4423 47.734 63.347 47.734C62.9957 47.734 62.6753 47.7547 62.386 47.796C62.1173 47.8167 61.9003 47.858 61.735 47.92V51.857ZM56.868 69C56.8887 68.0493 56.899 67.1297 56.899 66.241C56.9197 65.3317 56.93 64.443 56.93 63.575C56.9507 62.6863 56.961 61.7977 56.961 60.909C56.961 60.0203 56.961 59.1007 56.961 58.15C56.961 55.4427 56.9403 52.849 56.899 50.369C56.8783 47.889 56.8267 45.6777 56.744 43.735C57.9013 43.5697 59.0897 43.456 60.309 43.394C61.5283 43.3113 62.6237 43.27 63.595 43.27C69.3403 43.27 72.213 44.9337 72.213 48.261C72.213 49.563 71.8307 50.679 71.066 51.609C70.322 52.5183 69.33 53.0763 68.09 53.283C70.0947 53.655 71.562 54.43 72.492 55.608C73.422 56.7653 73.887 58.4083 73.887 60.537C73.887 63.5337 72.957 65.7553 71.097 67.202C69.237 68.628 66.3437 69.341 62.417 69.341C61.6523 69.341 60.7947 69.31 59.844 69.248C58.914 69.2067 57.922 69.124 56.868 69ZM61.735 60.661C61.9417 60.723 62.2517 60.7747 62.665 60.816C63.0783 60.8573 63.4813 60.878 63.874 60.878C65.176 60.878 66.1577 60.6713 66.819 60.258C67.501 59.8447 67.842 59.2557 67.842 58.491C67.842 57.7057 67.4803 57.1063 66.757 56.693C66.0543 56.2797 65.0727 56.073 63.812 56.073C63.5433 56.073 63.2437 56.0833 62.913 56.104C62.603 56.1247 62.2103 56.1557 61.735 56.197V60.661ZM86.4415 69.093C85.8628 69.0723 85.0982 69.0517 84.1475 69.031C83.1968 69.031 82.1738 69.0207 81.0785 69C80.0038 69 78.9188 69 77.8235 69C76.7488 69 75.7982 69 74.9715 69C74.9922 68.566 75.0025 67.9873 75.0025 67.264C75.0232 66.5407 75.0335 65.714 75.0335 64.784C75.0335 63.854 75.0335 62.8517 75.0335 61.777C75.0335 60.6817 75.0335 59.5553 75.0335 58.398C75.0335 56.8273 75.0232 55.2567 75.0025 53.686C75.0025 52.1153 75.0025 50.6583 75.0025 49.315C75.0025 47.951 74.9922 46.773 74.9715 45.781C74.9715 44.789 74.9715 44.0863 74.9715 43.673C75.7775 43.673 76.6662 43.673 77.6375 43.673C78.6088 43.673 79.6008 43.673 80.6135 43.673C81.6262 43.6523 82.6182 43.6317 83.5895 43.611C84.5608 43.5903 85.4702 43.5697 86.3175 43.549C86.3175 43.8177 86.3175 44.0553 86.3175 44.262C86.3382 44.448 86.3485 44.7167 86.3485 45.068C86.3485 45.316 86.3382 45.6157 86.3175 45.967C86.3175 46.2977 86.3072 46.649 86.2865 47.021C86.2865 47.3723 86.2762 47.734 86.2555 48.106C86.2555 48.4573 86.2452 48.788 86.2245 49.098H79.9935V52.694H85.4185V57.313H79.9935V60.785H86.3175C86.3382 61.2603 86.3588 61.746 86.3795 62.242C86.4002 62.738 86.4105 63.296 86.4105 63.916C86.4312 64.536 86.4415 65.2697 86.4415 66.117C86.4415 66.9437 86.4415 67.9357 86.4415 69.093ZM87.8067 69C87.8687 67.0367 87.9101 65.0837 87.9307 63.141C87.9514 61.1777 87.9617 59.3177 87.9617 57.561C87.9617 55.0603 87.9411 52.6837 87.8997 50.431C87.8791 48.1783 87.8481 45.9153 87.8067 43.642C88.8194 43.5387 89.8321 43.456 90.8447 43.394C91.8781 43.3113 92.9217 43.27 93.9757 43.27C95.4844 43.27 96.9001 43.3837 98.2227 43.611C99.5454 43.8177 100.692 44.2207 101.664 44.82C102.635 45.3987 103.4 46.2047 103.958 47.238C104.536 48.2713 104.826 49.6043 104.826 51.237C104.826 53.2623 104.402 54.8537 103.555 56.011C102.728 57.1683 101.602 58.0363 100.176 58.615L105.229 69H99.7107L95.5877 59.545C94.7404 59.607 93.8621 59.638 92.9527 59.638C92.9527 61.2293 92.9631 62.7897 92.9837 64.319C93.0044 65.8483 93.0664 67.4087 93.1697 69H87.8067ZM92.9527 54.926C93.5934 54.988 94.1824 55.019 94.7197 55.019C96.1251 55.019 97.1171 54.7607 97.6957 54.244C98.2951 53.7067 98.5947 52.911 98.5947 51.857C98.5947 51.2163 98.5017 50.6997 98.3157 50.307C98.1504 49.9143 97.9127 49.6043 97.6027 49.377C97.3134 49.1497 96.9621 48.9947 96.5487 48.912C96.1561 48.8293 95.7324 48.788 95.2777 48.788C94.9471 48.788 94.5751 48.8087 94.1617 48.85C93.7691 48.8707 93.3661 48.912 92.9527 48.974V54.926ZM105.101 69L109.689 43.642H117.346L121.903 69H116.664L115.889 63.916H111.115L110.371 69H105.101ZM111.952 58.367H115.052L113.502 48.137L111.952 58.367ZM128.263 43.642C128.201 44.882 128.15 45.9773 128.108 46.928C128.088 47.8787 128.067 48.788 128.046 49.656C128.026 50.524 128.005 51.423 127.984 52.353C127.984 53.2623 127.984 54.306 127.984 55.484H128.108L133.626 43.611H139.392L133.316 55.98L139.764 69H133.967L128.108 56.724H127.984C127.984 57.4887 127.984 58.3567 127.984 59.328C127.984 60.2993 127.984 61.3223 127.984 62.397C128.005 63.451 128.015 64.5463 128.015 65.683C128.036 66.799 128.046 67.9047 128.046 69H122.59C122.611 68.0907 122.632 67.1503 122.652 66.179C122.673 65.187 122.694 64.1227 122.714 62.986C122.735 61.8287 122.745 60.5887 122.745 59.266C122.745 57.9227 122.745 56.445 122.745 54.833C122.745 53.4277 122.745 52.2393 122.745 51.268C122.745 50.276 122.735 49.377 122.714 48.571C122.714 47.765 122.714 46.99 122.714 46.246C122.714 45.4813 122.714 44.6133 122.714 43.642H128.263ZM139.567 49.935C139.567 48.6123 139.815 47.5273 140.311 46.68C140.828 45.812 141.468 45.13 142.233 44.634C143.018 44.1173 143.876 43.766 144.806 43.58C145.757 43.3733 146.666 43.27 147.534 43.27C147.782 43.27 148.092 43.2803 148.464 43.301C148.857 43.3217 149.26 43.3527 149.673 43.394C150.107 43.4353 150.541 43.4973 150.975 43.58C151.43 43.642 151.853 43.735 152.246 43.859C152.287 44.3963 152.318 44.9027 152.339 45.378C152.36 45.8327 152.37 46.3597 152.37 46.959C152.37 47.5583 152.36 48.137 152.339 48.695C152.318 49.2323 152.287 49.749 152.246 50.245C152.081 50.2243 151.864 50.1933 151.595 50.152C151.347 50.1107 151.078 50.0797 150.789 50.059C150.52 50.0383 150.241 50.0177 149.952 49.997C149.683 49.9763 149.425 49.966 149.177 49.966C148.185 49.966 147.462 50.121 147.007 50.431C146.552 50.741 146.325 51.1647 146.325 51.702C146.325 52.012 146.397 52.3117 146.542 52.601C146.687 52.8697 146.873 53.128 147.1 53.376C147.348 53.624 147.617 53.8617 147.906 54.089C148.216 54.3163 148.526 54.5333 148.836 54.74C149.332 55.0913 149.828 55.484 150.324 55.918C150.841 56.3313 151.306 56.8377 151.719 57.437C152.132 58.0157 152.473 58.6977 152.742 59.483C153.011 60.2477 153.145 61.1363 153.145 62.149C153.145 63.4717 152.918 64.5877 152.463 65.497C152.008 66.4063 151.419 67.1503 150.696 67.729C149.993 68.287 149.198 68.7003 148.309 68.969C147.441 69.217 146.573 69.341 145.705 69.341C145.312 69.341 144.827 69.31 144.248 69.248C143.69 69.2067 143.122 69.1343 142.543 69.031C141.964 68.9483 141.417 68.845 140.9 68.721C140.383 68.5763 139.97 68.411 139.66 68.225C139.577 67.853 139.505 67.4707 139.443 67.078C139.402 66.6853 139.381 66.2513 139.381 65.776C139.381 65.4453 139.391 65.0423 139.412 64.567C139.453 64.0917 139.495 63.606 139.536 63.11C139.577 62.614 139.619 62.1387 139.66 61.684C139.722 61.2293 139.774 60.847 139.815 60.537C140.042 60.661 140.373 60.8057 140.807 60.971C141.241 61.1157 141.706 61.2603 142.202 61.405C142.719 61.5497 143.235 61.6737 143.752 61.777C144.269 61.8803 144.723 61.932 145.116 61.932C145.777 61.932 146.273 61.7977 146.604 61.529C146.935 61.2397 147.1 60.8573 147.1 60.382C147.1 59.8653 146.914 59.4107 146.542 59.018C146.17 58.6047 145.705 58.2017 145.147 57.809C144.589 57.4163 143.979 57.003 143.318 56.569C142.677 56.1143 142.078 55.5873 141.52 54.988C140.962 54.3887 140.497 53.686 140.125 52.88C139.753 52.0533 139.567 51.0717 139.567 49.935ZM156.368 60.227V55.205C156.368 53.8823 156.357 52.756 156.337 51.826C156.337 50.896 156.337 50.0383 156.337 49.253H154.043C154.022 48.7777 154.001 48.3127 153.981 47.858C153.96 47.4033 153.95 46.9383 153.95 46.463C153.95 45.9877 153.96 45.5123 153.981 45.037C154.001 44.5617 154.022 44.0967 154.043 43.642H163.591C163.611 44.1173 163.622 44.5927 163.622 45.068C163.622 45.5227 163.622 45.9877 163.622 46.463C163.622 46.9383 163.622 47.4033 163.622 47.858C163.622 48.3127 163.611 48.7777 163.591 49.253H161.328C161.286 50.6377 161.255 52.0017 161.235 53.345C161.235 54.6883 161.235 56.1867 161.235 57.84V60.227H163.591C163.611 60.971 163.622 61.7047 163.622 62.428C163.622 63.1513 163.622 63.885 163.622 64.629C163.622 65.3523 163.622 66.086 163.622 66.83C163.622 67.5533 163.611 68.2767 163.591 69H154.043C154.022 68.2767 154.001 67.5533 153.981 66.83C153.96 66.086 153.95 65.3523 153.95 64.629C153.95 63.885 153.96 63.1513 153.981 62.428C154.001 61.7047 154.022 60.971 154.043 60.227H156.368Z" fill="#1551A2"/>
<path d="M18.7381 27.394L22.0041 10.922H29.5301L26.1221 27.394H34.2871L37.5531 10.922H45.1501L41.7421 27.394H50.6171V34.92H40.1801L38.3341 44.008H48.4871V51.534H36.7721L33.1511 69H26.1221L29.5301 51.534H21.1521L17.5311 69H10.5731L13.9811 51.534H5.39011V44.008H15.4721L17.2471 34.92H7.52011V27.394H18.7381ZM22.7141 44.008H31.0211L32.7961 34.92H24.5601L22.7141 44.008Z" fill="#F93942"/>
</svg>
